<svg xmlns="http://www.w3.org/2000/svg" viewBox="0 0 167.7 97.72"><defs><style>.cls-1{fill:#bfc0c0;}.cls-1,.cls-3{stroke:#231f20;}.cls-1,.cls-2,.cls-3{stroke-miterlimit:10;}.cls-2{fill:#fff;stroke:#faedcd;}.cls-3{fill:none;}</style></defs><g id="Layer_2" data-name="Layer 2"><g id="Layer_1-2" data-name="Layer 1"><path class="cls-1" d="M51.43,84.41a11.83,11.83,0,0,0-3.66,5.09,3.47,3.47,0,0,0,2.16,4.33c6.37,2.27,23.39,3.61,32.93,3.36,10.79-.28,23.16.09,31.11-5.91a3.17,3.17,0,0,0,.68-4.43,19.64,19.64,0,0,0-3-3.12"/><path class="cls-1" d="M.52,16.86S7.8,92.07,84.62,88.63,167.16,8.84,167.16,8.84s2.3-7.34-30.95-8.26S23.62,6.77,23.62,6.77,5.61,9.75.52,16.86Z"/><ellipse class="cls-2" cx="15.13" cy="18.35" rx="0.76" ry="2.1"/><ellipse class="cls-2" cx="19.04" cy="19.27" rx="0.69" ry="1.95"/><ellipse class="cls-2" cx="21.74" cy="18.11" rx="1.97" ry="0.77" transform="translate(-6.23 22.4) rotate(-48.51)"/><ellipse class="cls-2" cx="24.6" cy="19.98" rx="1.47" ry="0.9" transform="translate(0.61 40.68) rotate(-79.88)"/><ellipse class="cls-2" cx="27.55" cy="18.21" rx="1.77" ry="0.84" transform="matrix(0.18, -0.98, 0.98, 0.18, 4.79, 42.13)"/><ellipse class="cls-2" cx="30.06" cy="19.01" rx="2.08" ry="1.05" transform="translate(3.64 42.82) rotate(-74.33)"/><ellipse class="cls-2" cx="32.2" cy="19.61" rx="1.79" ry="0.88" transform="translate(8.86 49.21) rotate(-83.09)"/><ellipse class="cls-2" cx="36.27" cy="19.94" rx="0.99" ry="1.43"/><ellipse class="cls-2" cx="38.15" cy="15.77" rx="0.88" ry="1.17"/><ellipse class="cls-2" cx="41.34" cy="19.9" rx="2.08" ry="1.15" transform="translate(1.74 43.07) rotate(-56.03)"/><ellipse class="cls-2" cx="45.73" cy="18.6" rx="1.66" ry="1.17" transform="translate(10.56 53.25) rotate(-66.71)"/><ellipse class="cls-2" cx="45.69" cy="15.11" rx="1.74" ry="0.66" transform="translate(-2.32 18.37) rotate(-22.18)"/><ellipse class="cls-2" cx="50.32" cy="15.33" rx="1.03" ry="0.67" transform="translate(11.88 51.24) rotate(-60)"/><ellipse class="cls-2" cx="50.81" cy="20.03" rx="1.2" ry="1.76"/><ellipse class="cls-2" cx="53.37" cy="17.87" rx="1.53" ry="1.05" transform="translate(19.38 62.73) rotate(-71.36)"/><ellipse class="cls-2" cx="56.32" cy="14.32" rx="0.86" ry="1.66"/><ellipse class="cls-2" cx="56.42" cy="18.03" rx="1.53" ry="1.12" transform="translate(3.77 45.17) rotate(-45)"/><ellipse class="cls-2" cx="59.45" cy="19.23" rx="1.85" ry="0.67" transform="translate(2.2 44.27) rotate(-41.55)"/><ellipse class="cls-2" cx="60.09" cy="16.25" rx="0.64" ry="1.45"/><ellipse class="cls-2" cx="62.91" cy="14.36" rx="0.73" ry="1.89"/><ellipse class="cls-2" cx="62.57" cy="19.47" rx="1.83" ry="0.87" transform="translate(4.56 49.94) rotate(-45)"/><ellipse class="cls-2" cx="66.41" cy="19.96" rx="1.59" ry="0.69" transform="translate(29.64 78.75) rotate(-74.71)"/><ellipse class="cls-2" cx="67.07" cy="16.25" rx="0.93" ry="1.38"/><ellipse class="cls-2" cx="69.33" cy="16.61" rx="1.55" ry="0.83" transform="translate(31.44 77) rotate(-71.36)"/><ellipse class="cls-2" cx="69.58" cy="19.42" rx="0.74" ry="1.34"/><ellipse class="cls-2" cx="72.11" cy="17.61" rx="1.62" ry="0.61" transform="translate(20.81 71.26) rotate(-60)"/><ellipse class="cls-2" cx="74.2" cy="13.56" rx="1.33" ry="0.9" transform="translate(6.82 47.46) rotate(-37.07)"/><ellipse class="cls-2" cx="71.13" cy="13.22" rx="1.3" ry="1.14"/><ellipse class="cls-2" cx="75.85" cy="17.29" rx="2.04" ry="1.06" transform="translate(3.37 45.55) rotate(-34.14)"/><ellipse class="cls-2" cx="77.98" cy="13.17" rx="1.7" ry="0.9" transform="translate(35.05 79.59) rotate(-66.71)"/><ellipse class="cls-2" cx="80.43" cy="16.49" rx="1.38" ry="0.94" transform="translate(33.48 83.85) rotate(-66.71)"/><ellipse class="cls-2" cx="80.11" cy="20.02" rx="1.07" ry="1.42"/><ellipse class="cls-2" cx="77.39" cy="20.63" rx="0.8" ry="1.16"/><ellipse class="cls-2" cx="84.29" cy="19.31" rx="1.7" ry="0.71" transform="translate(11.03 65.26) rotate(-45)"/><ellipse class="cls-2" cx="84.04" cy="16.34" rx="1.57" ry="0.79" transform="translate(31.11 83.63) rotate(-62.81)"/><ellipse class="cls-2" cx="83.55" cy="12.73" rx="1.63" ry="0.71" transform="translate(22.74 71.42) rotate(-52.64)"/><ellipse class="cls-2" cx="87.2" cy="14.53" rx="0.97" ry="1.81" transform="translate(2 38.12) rotate(-24.94)"/><ellipse class="cls-2" cx="90.1" cy="15.07" rx="1.77" ry="1.03" transform="translate(23.45 77.54) rotate(-52.64)"/><ellipse class="cls-2" cx="90.01" cy="18.83" rx="1.8" ry="0.97" transform="translate(2.64 47.53) rotate(-30)"/><ellipse class="cls-2" cx="93.2" cy="18.62" rx="0.94" ry="1.61"/><ellipse class="cls-2" cx="95.47" cy="17.99" rx="0.96" ry="1.74"/><ellipse class="cls-2" cx="94.95" cy="14.71" rx="0.82" ry="1.54"/><ellipse class="cls-2" cx="99.69" cy="12.86" rx="1.89" ry="1.19" transform="translate(48.46 99.34) rotate(-66.71)"/><ellipse class="cls-2" cx="98.31" cy="17.98" rx="1.49" ry="0.9" transform="translate(4.18 51.56) rotate(-30)"/><ellipse class="cls-2" cx="100.16" cy="19.02" rx="0.92" ry="1.39"/><ellipse class="cls-2" cx="103.44" cy="17.78" rx="1.53" ry="0.86" transform="translate(63.52 114.85) rotate(-77.4)"/><ellipse class="cls-2" cx="102.38" cy="15.42" rx="1.06" ry="1.86"/><ellipse class="cls-2" cx="103.41" cy="11.63" rx="1.44" ry="0.61" transform="translate(6.51 49.57) rotate(-27.8)"/><ellipse class="cls-2" cx="105.73" cy="14.92" rx="0.97" ry="1.69"/><ellipse class="cls-2" cx="108.4" cy="15.37" rx="1.64" ry="0.82" transform="translate(35.7 97.24) rotate(-56.47)"/><ellipse class="cls-2" cx="107.16" cy="18.76" rx="0.84" ry="1.47"/><ellipse class="cls-2" cx="109.4" cy="13.22" rx="1.46" ry="0.69" transform="translate(47.64 104.49) rotate(-62.81)"/><ellipse class="cls-2" cx="110.57" cy="16.84" rx="1.45" ry="0.79" transform="translate(6.39 57.54) rotate(-30)"/><ellipse class="cls-2" cx="111.76" cy="18.16" rx="0.73" ry="1.31"/><ellipse class="cls-2" cx="114.71" cy="17.44" rx="1.18" ry="0.78" transform="translate(46.78 111.5) rotate(-62.81)"/><ellipse class="cls-2" cx="114.2" cy="14.33" rx="1.43" ry="1.01" transform="translate(27.02 89.47) rotate(-47.91)"/><ellipse class="cls-2" cx="113.42" cy="11.84" rx="1.55" ry="0.93" transform="translate(40.9 99.84) rotate(-56.47)"/><ellipse class="cls-2" cx="116.8" cy="11.83" rx="1.39" ry="0.88" transform="translate(59.75 114.43) rotate(-66.71)"/><ellipse class="cls-2" cx="117.98" cy="14.13" rx="0.73" ry="1.41"/><circle class="cls-2" cx="118.33" cy="17.42" r="0.92"/><ellipse class="cls-2" cx="120.35" cy="12.47" rx="1.45" ry="0.73" transform="translate(37.41 100.57) rotate(-52.64)"/><ellipse class="cls-2" cx="119.62" cy="15.58" rx="1.41" ry="0.8" transform="translate(58.01 119.29) rotate(-66.71)"/><ellipse class="cls-2" cx="120.98" cy="16.4" rx="1.89" ry="1.03"/><ellipse class="cls-2" cx="123.08" cy="13.59" rx="0.59" ry="1.12"/><ellipse class="cls-2" cx="123.67" cy="11.81" rx="1.41" ry="0.84" transform="translate(100.65 133.9) rotate(-84.78)"/><ellipse class="cls-2" cx="125.07" cy="14.92" rx="1.44" ry="0.89" transform="translate(69.14 127.78) rotate(-70.44)"/><ellipse class="cls-2" cx="127.78" cy="11.91" rx="1.51" ry="0.82" transform="translate(14.97 73.09) rotate(-33.79)"/><ellipse class="cls-2" cx="127.48" cy="16.84" rx="1.62" ry="1.16" transform="translate(54.24 122.54) rotate(-62.81)"/><ellipse class="cls-2" cx="129.94" cy="14.52" rx="0.92" ry="1.35"/><ellipse class="cls-2" cx="131.06" cy="12.18" rx="1.59" ry="0.63" transform="translate(68.05 127.75) rotate(-66.71)"/><ellipse class="cls-2" cx="133.21" cy="15.72" rx="1.91" ry="0.94" transform="translate(58.36 127.02) rotate(-62.81)"/><ellipse class="cls-2" cx="135.51" cy="11.99" rx="1.81" ry="1.06" transform="translate(35.78 104.51) rotate(-47.91)"/><ellipse class="cls-2" cx="137.41" cy="15.3" rx="1.89" ry="1.42" transform="translate(29.43 101.64) rotate(-45)"/><ellipse class="cls-2" cx="142.23" cy="15.22" rx="1.24" ry="1.63" transform="translate(23.41 94.86) rotate(-39.94)"/><ellipse class="cls-2" cx="138.91" cy="12.19" rx="1.5" ry="0.98"/><ellipse class="cls-2" cx="141.19" cy="13.03" rx="1.49" ry="0.75" transform="translate(81.64 141.71) rotate(-70.44)"/><ellipse class="cls-2" cx="143.96" cy="12.73" rx="1.79" ry="0.84" transform="translate(66.85 134.96) rotate(-62.81)"/><ellipse class="cls-2" cx="146.39" cy="13.77" rx="1.95" ry="1.09" transform="translate(56.86 130.4) rotate(-57.86)"/><ellipse class="cls-2" cx="148.14" cy="14.48" rx="1.1" ry="1.75" transform="translate(46.74 123.45) rotate(-52.64)"/><ellipse class="cls-2" cx="33.44" cy="15.66" rx="1.83" ry="0.74"/><ellipse class="cls-2" cx="37.65" cy="18.62" rx="0.88" ry="1.61"/><ellipse class="cls-2" cx="34.9" cy="17.76" rx="1.47" ry="0.96" transform="translate(2.07 39.1) rotate(-60)"/><ellipse class="cls-2" cx="48.86" cy="17.86" rx="1.46" ry="2.36"/><ellipse class="cls-2" cx="97.5" cy="15.06" rx="1.08" ry="1.88" transform="translate(17.91 73.35) rotate(-45)"/><ellipse class="cls-2" cx="64.71" cy="16.99" rx="1.43" ry="1"/><ellipse class="cls-2" cx="41.62" cy="16.31" rx="1.64" ry="2.59" transform="matrix(0.5, -0.87, 0.87, 0.5, 6.69, 44.2)"/><ellipse class="cls-2" cx="67.02" cy="13.22" rx="2.39" ry="1.43" transform="translate(0.67 29.49) rotate(-24.94)"/><ellipse class="cls-2" cx="52.73" cy="14.45" rx="1.13" ry="1.98" transform="translate(5.23 41.52) rotate(-45)"/><ellipse class="cls-2" cx="92.27" cy="13.67" rx="0.93" ry="2.04" transform="translate(43.23 93.02) rotate(-66.71)"/><ellipse class="cls-2" cx="73.31" cy="20.45" rx="0.89" ry="1.43" transform="translate(8.05 59.62) rotate(-46.56)"/><path class="cls-3" d="M.52,16.86S0,21.68,14.45,22.14c0,0,88.21,1.14,120.61-3.9,0,0,28.89-2.75,32.1-9.4"/></g></g></svg>