<svg xmlns="http://www.w3.org/2000/svg" viewBox="0 0 67.89 20.15"><defs><style>.cls-1{fill:#fbb040;}.cls-1,.cls-2{stroke:#231f20;stroke-linecap:round;stroke-linejoin:round;}.cls-2{fill:none;}.cls-3{fill:#2bb673;}</style></defs><g id="Layer_2" data-name="Layer 2"><g id="Layer_1-2" data-name="Layer 1"><path class="cls-1" d="M50.84,4.89S51,.53,44.62,3.51L16.18,10.7,9.53,12.38S-.94,13.68.67,17.5s12.69,1.38,12.69,1.38l23.23-3.06S52,14.73,51.34,11.06L51,9.4s8.48,3.09,10,1.66c0,0-1.38-2-5.81-2.2l10.4.08s0-2.37-7.19-1.61c0,0,8.18.08,8.94-2.75,0,0-7.33-.3-8.71.54l5-2.65s-4.43-1.1-6.27,1.27L58.53.53S56.76-.16,50.84,4.89Z"/><path class="cls-2" d="M6.63,16.05a1.76,1.76,0,0,0,0,2"/><path class="cls-2" d="M13.05,13.6S12.74,16.28,14,17"/><path class="cls-2" d="M22.15,11.84a3.76,3.76,0,0,0,.53,4.21"/><path class="cls-2" d="M31.78,8.94s-1.07,3.36,1.07,5.43"/><path class="cls-2" d="M39.34,6.88A7.88,7.88,0,0,0,41.1,13.3"/><path class="cls-3" d="M50.36,4.76C56.27-.28,58,.4,58,.4L56.9,3.61c1.83-2.37,6.26-1.27,6.26-1.27L58.19,5c1.38-.84,8.72-.53,8.72-.53C66.14,7.28,58,7.21,58,7.21c7.18-.77,7.18,1.6,7.18,1.6l-10.4-.07c4.44.15,5.81,2.19,5.81,2.19-1.52,1.43-10-1.66-10-1.66Z"/></g></g></svg>