<svg xmlns="http://www.w3.org/2000/svg" viewBox="0 0 64.87 60"><defs><style>.cls-1{fill:#fff;}.cls-1,.cls-2{stroke:#231f20;}.cls-1,.cls-2,.cls-3{stroke-miterlimit:10;}.cls-2{fill:#faedcd;}.cls-3{fill:#f15a29;stroke:#f15a29;}</style></defs><g id="Layer_2" data-name="Layer 2"><g id="Layer_1-2" data-name="Layer 1"><path class="cls-1" d="M12,28.21c0,.68,1.27,1.92,2.37,2.87a3.72,3.72,0,0,1,1.25,3.49l-.64,3.67s-1.27,7.34,2.75,8.94a20.85,20.85,0,0,1,7,5,13.37,13.37,0,0,0,2.5,4.25,9.25,9.25,0,0,0,8.62,2.87,24.46,24.46,0,0,0,2.59-.63,18,18,0,0,0,10.81-8.91,16.24,16.24,0,0,0,2.08-7.9c-.23-7.34,1.35-9.86,1.35-9.86l5.22-12.51-7-6.09S48.52,23,46.68,24.71a23.56,23.56,0,0,1-5.42,3.15,9.27,9.27,0,0,0-2.56,1.78c-4.12,4-7.13,4-9.56,4-2.63,0-5.73-2.09-6.07-3.81A7,7,0,0,0,21,26.66a5.78,5.78,0,0,1-2.75-4.58A18.1,18.1,0,0,1,21,16.46c1.94-2.53-2-5.5-2-5.5s-9.14,8-7,17.25"/><path class="cls-2" d="M23.69,9.34c-1.34-1.42-4.6-3.41-12.51-3.79A11.34,11.34,0,0,0,3.7,7.78,7.7,7.7,0,0,0,.86,16.49a13.17,13.17,0,0,0,4.9,7L13,29a.21.21,0,0,0,.33-.19l-.71-4.78a.38.38,0,0,1,.53-.41L16.41,25a.2.2,0,0,0,.28-.24l-1.16-4.53a.38.38,0,0,1,.31-.48l3.09-.49a.21.21,0,0,0,.14-.32l-1.89-2.83a.38.38,0,0,1,.31-.59l4.28-.12a.21.21,0,0,0,.17-.32L19.62,11.7a.38.38,0,0,1,.3-.59L23,10.93A1,1,0,0,0,23.69,9.34Z"/><path class="cls-2" d="M40.93,6.27C42.51,4.12,47.39-1,57.11.91a8.08,8.08,0,0,1,4.8,2.8,10.69,10.69,0,0,1,1.88,10.37,14.27,14.27,0,0,1-2.6,4.66l-5.34,6.55a.34.34,0,0,1-.61-.24l.35-5.22a.33.33,0,0,0-.48-.31l-3.72,2a.34.34,0,0,1-.5-.37L52.21,15a.32.32,0,0,0-.46-.36l-1.64.79a.34.34,0,0,1-.49-.36l.44-2.57a.33.33,0,0,0-.32-.38H48a.34.34,0,0,1-.33-.44l.92-3a.33.33,0,0,0-.39-.41L44,9.31a.34.34,0,0,1-.41-.43l.84-2.7a.33.33,0,0,0-.43-.4l-2.66,1A.34.34,0,0,1,40.93,6.27Z"/><path class="cls-3" d="M34.37,39.74c2-.83,5-1.16,8.86.91a7.86,7.86,0,0,1,2.44,8.29A5.8,5.8,0,0,1,44,51.75a13.44,13.44,0,0,1-7.68,3.31A5.21,5.21,0,0,1,31,52.31c-.88-1.76-1.44-4.42-.39-8.19A6.66,6.66,0,0,1,34.37,39.74Z"/></g></g></svg>