<svg xmlns="http://www.w3.org/2000/svg" viewBox="0 0 253.88 429.79"><defs><style>.cls-1,.cls-3{fill:none;}.cls-1{stroke:#231f20;stroke-miterlimit:10;}.cls-2,.cls-3{stroke:#000;stroke-linecap:round;stroke-linejoin:round;}</style></defs><g id="Layer_2" data-name="Layer 2"><g id="Layer_1-2" data-name="Layer 1"><path class="cls-1" d="M89.8,151.63,28.85,213.17s-11,14.39-23.21,6.19C-4.85,209,4,199.13,4,199.13l72.14-72S90.3,112.91,107.5,113.6c9,.36,20.74.34,29.81.24a64.79,64.79,0,0,1,33.22,8.55,33.47,33.47,0,0,1,6.66,4.77l72,72.14a14.08,14.08,0,0,1,4.18,8.9,13.63,13.63,0,0,1-3.9,10.42,11.81,11.81,0,0,1-11.52,4,14.43,14.43,0,0,1-7.33-4l-66.32-66"/><ellipse class="cls-2" cx="126.97" cy="77.1" rx="25.94" ry="27.02"/><path class="cls-2" d="M66.92,6.75S71.73-1.62,81.13,1l.28.08a11.47,11.47,0,0,1,7.32,15.18c-6.23,16-24.44,71.49,12.3,96.87,0,0,26.19,18.8,50.5,0,0,0,41-22.65,12.14-96.75a11.3,11.3,0,0,1,2.57-12.33A12,12,0,0,1,172.51,1S181-1.11,186.27,7.55c0,0,30.18,67.48-14.33,127.24a40.93,40.93,0,0,0-8.23,23.88l-1,70.12a11.33,11.33,0,0,1-11.32,11.15H101.86a11.32,11.32,0,0,1-11.33-11.32V159.28a40.49,40.49,0,0,0-9.82-26.42C64.68,114.27,37.51,70.15,66.92,6.75Z"/><path class="cls-2" d="M96.36,251.25l12.52,6.69a6.16,6.16,0,0,1,2.67,8.05L40.65,417.08a13.84,13.84,0,0,1-5.49,6.16c-2.93,1.69-7.22,2.78-12.73.37-11-4.81-6.42-17.42-6.42-17.42L87.88,254.05A6.17,6.17,0,0,1,96.36,251.25Z"/><path class="cls-2" d="M143.06,257.88l12.73-6.51a6.17,6.17,0,0,1,8.38,2.86l71.38,151.34a13.94,13.94,0,0,1,1.38,6.28c-.07,3.67-1.21,8.93-6.52,11.76,0,0-11.87,7.57-19.44-7.11-6.68-12.95-58.62-124.57-70.7-150.54A6.16,6.16,0,0,1,143.06,257.88Z"/><path class="cls-3" d="M99,249.51l13.77.63A5.83,5.83,0,0,1,118.4,256l-1.71,160.1a13.32,13.32,0,0,1-2.37,7.6c-1.91,2.67-5.27,5.39-11.11,5.58-11.69.37-12.72-12.45-12.72-12.45l2.15-161.4A6.08,6.08,0,0,1,99,249.51Z"/><path class="cls-3" d="M141.69,249.38l13.75-.46a6,6,0,0,1,6.16,5.89l1.09,160.44a13.4,13.4,0,0,1-1.33,6c-1.56,3.16-4.68,7.26-10.46,7.55,0,0-13.43,1.74-14.1-14.08-.59-14-.78-132-.82-159.46A5.9,5.9,0,0,1,141.69,249.38Z"/></g></g></svg>