<svg xmlns="http://www.w3.org/2000/svg" viewBox="0 0 222.87 429.79"><defs><style>.cls-1,.cls-2{stroke:#000;}.cls-1,.cls-2,.cls-4{stroke-linecap:round;stroke-linejoin:round;}.cls-2{fill:none;}.cls-3{fill:#04151f;stroke-miterlimit:10;}.cls-3,.cls-4{stroke:#231f20;}.cls-4{fill:#231f20;}</style></defs><g id="Layer_2" data-name="Layer 2"><g id="Layer_1-2" data-name="Layer 1"><ellipse class="cls-1" cx="112.4" cy="77.1" rx="25.94" ry="27.02"/><path class="cls-2" d="M162.63,127.17C199.39,69.44,171.7,7.55,171.7,7.55,166.43-1.11,157.94,1,157.94,1a12,12,0,0,0-6.26,3.1,11.3,11.3,0,0,0-2.57,12.33C177.93,90.49,137,113.14,137,113.14c-24.3,18.8-50.49,0-50.49,0C49.73,87.76,67.94,32.22,74.16,16.27A11.47,11.47,0,0,0,66.85,1.09L66.57,1c-9.4-2.63-14.22,5.74-14.22,5.74-26.73,57.64-6.7,99.35,9.2,120.41l2.63,3.33H160.1Z"/><path class="cls-3" d="M166.67,219.45,163,135.25a19.75,19.75,0,0,0-.69-4.59,13.21,13.21,0,0,0-6-8.09l-1.24-.71c-9.76-5.47-20.31-7.11-32-8-9.1.1-20.94.13-30.07-.24-1,0-1.9,0-2.84,0-16,.84-28.58,14-29.58,29.92L56,215.6a10.06,10.06,0,0,0,3.32,8.29.52.52,0,0,0,.11.1,8.1,8.1,0,0,0,9.19.76,8.48,8.48,0,0,0,4.09-7.27l2.54-65.85L76,151v77.67a11.32,11.32,0,0,0,11.32,11.32h49.52a11.32,11.32,0,0,0,11.32-11.15l1-70.12V152l.57.55,2.15,68a10.87,10.87,0,0,0,.18,1.61c1.35,6.88,12.08,7.73,14.15.63a2.62,2.62,0,0,0,.27-.84A9,9,0,0,0,166.67,219.45Z"/><path class="cls-2" d="M81.8,251.25l12.51,6.69A6.16,6.16,0,0,1,97,266L26.09,417.08a13.87,13.87,0,0,1-5.5,6.16c-2.92,1.69-7.22,2.78-12.72.37-11-4.81-6.42-17.42-6.42-17.42L73.32,254.05A6.17,6.17,0,0,1,81.8,251.25Z"/><path class="cls-2" d="M128.49,257.88l12.74-6.51a6.16,6.16,0,0,1,8.37,2.86L221,405.57a14.21,14.21,0,0,1,1.38,6.28c-.08,3.67-1.22,8.93-6.53,11.76,0,0-11.86,7.57-19.43-7.11-6.68-12.95-58.63-124.57-70.7-150.54A6.16,6.16,0,0,1,128.49,257.88Z"/><path class="cls-4" d="M84.44,249.51l13.78.63a5.84,5.84,0,0,1,5.62,5.87l-1.72,160.1a13.32,13.32,0,0,1-2.37,7.6c-1.9,2.67-5.27,5.39-11.11,5.58-11.68.37-12.72-12.45-12.72-12.45l2.15-161.4A6.09,6.09,0,0,1,84.44,249.51Z"/><path class="cls-4" d="M127.13,249.38l13.75-.46a6,6,0,0,1,6.16,5.89l1.09,160.44a13.41,13.41,0,0,1-1.34,6c-1.55,3.16-4.67,7.26-10.46,7.55,0,0-13.43,1.74-14.09-14.08-.59-14-.78-132-.82-159.46A5.9,5.9,0,0,1,127.13,249.38Z"/></g></g></svg>