<svg xmlns="http://www.w3.org/2000/svg" viewBox="0 0 24.03 30.73"><defs><style>.cls-1{fill:#efd6ac;}.cls-1,.cls-2{stroke:#231f20;stroke-linecap:round;stroke-linejoin:round;}.cls-2{fill:none;}</style></defs><g id="Layer_2" data-name="Layer 2"><g id="Layer_1-2" data-name="Layer 1"><path class="cls-1" d="M5.22,9A11.27,11.27,0,0,0,3,12.12C.74,16.84-2.84,27.32,7.38,30c10.72,1.5,13.46-3.73,15.44-7.87a26.32,26.32,0,0,0,.62-3.59,9.48,9.48,0,0,0-.68-5.12c-1.14-2.57-3.66-5.53-9.19-7L14.11,2a.52.52,0,0,0-.81-.48L10.87,3.25,10.33.5,9,2.56,8.19,1.35a.51.51,0,0,0-.93.23L6.8,5,4.51,3.48,6.34,6.69A4.1,4.1,0,0,1,5.22,9Z"/><path class="cls-2" d="M6.8,10.82a15.51,15.51,0,0,0-.91,14.33"/><path class="cls-2" d="M11.27,10.13s-3.47,5.1.82,14.39"/><path class="cls-2" d="M13.85,10.13s5.16,4,2.47,14.39"/><path class="cls-2" d="M16.83,9.1s5.51,3.21,3.27,13.64"/></g></g></svg>