<svg xmlns="http://www.w3.org/2000/svg" viewBox="0 0 26.52 24.23"><defs><style>.cls-1{fill:#006838;}.cls-1,.cls-2{stroke:#231f20;stroke-linecap:round;stroke-linejoin:round;}.cls-2{fill:#ed1c24;}</style></defs><g id="Layer_2" data-name="Layer 2"><g id="Layer_1-2" data-name="Layer 1"><path class="cls-1" d="M7.72,6.23,5.16,3.63s2.3,2.64,2.56.19-.19-2.59-.19-2.59,1.15,3,1.87,1.83a5.22,5.22,0,0,0,.81-2s0,1.83.84,1.87S12.31.5,12.31.5s-.08,1.38.88,1.41S14.56.5,14.56.5,13.72,1.84,15,2a2.45,2.45,0,0,0,2-.8L15.66,4.72,13.55,8.21Z"/><path class="cls-2" d="M13.64,8.14S2.65.11.69,12,12.26,23.73,12.26,23.73s13,0,13.76-13.41C25.33-2.14,11.46,4.24,10.74,6.26"/></g></g></svg>